<svg xmlns="http://www.w3.org/2000/svg">
  <symbol id="power" viewBox="0 0 24 24"><path d="M12 2v9M6.2 5.8a8 8 0 1 0 11.6 0"/></symbol>
  <symbol id="update" viewBox="0 0 24 24"><path d="M7 18H5.5a4.5 4.5 0 0 1-.5-9A7 7 0 0 1 18.5 8a5 5 0 0 1 .5 10h-2M12 20V10m-4 4 4-4 4 4"/></symbol>
  <symbol id="sync" viewBox="0 0 24 24"><path d="M20 7v5h-5M4 17v-5h5M18.5 9A7 7 0 0 0 6.3 6.5L4 9m16 6-2.3 2.5A7 7 0 0 1 5.5 15"/></symbol>
  <symbol id="mic" viewBox="0 0 24 24"><rect x="8" y="2" width="8" height="13" rx="4"/><path d="M5 11a7 7 0 0 0 14 0M12 18v4M8 22h8"/></symbol>
  <symbol id="chat" viewBox="0 0 24 24"><path d="M4 4h16v12H9l-5 4V4Z"/><path d="M8 8h8M8 12h5"/></symbol>
  <symbol id="terminal" viewBox="0 0 24 24"><rect x="2.5" y="3.5" width="19" height="17" rx="2"/><path d="m7 9 3 3-3 3m6 0h4"/></symbol>
  <symbol id="send" viewBox="0 0 24 24"><path d="m3 3 18 9-18 9 4-9-4-9Zm4 9h14"/></symbol>
  <symbol id="close" viewBox="0 0 24 24"><path d="m5 5 14 14M19 5 5 19"/></symbol>
  <symbol id="model" viewBox="0 0 24 24"><circle cx="12" cy="12" r="8"/><path d="M12 12V6M4 12h2m12 0h2M6.3 6.3l1.4 1.4m8.6 8.6 1.4 1.4"/></symbol>
  <symbol id="engine" viewBox="0 0 24 24"><path d="M7 5h10l3 5v7l-3 2H7l-3-2v-7l3-5Z"/><circle cx="12" cy="12" r="3"/><path d="M12 2v3m0 14v3M2 12h2m16 0h2"/></symbol>
  <symbol id="permission" viewBox="0 0 24 24"><path d="M12 2 20 6v6c0 5-3.4 8.3-8 10-4.6-1.7-8-5-8-10V6l8-4Z"/><path d="m8.5 12 2.2 2.2 4.8-5"/></symbol>
  <symbol id="folder" viewBox="0 0 24 24"><path d="M3 6h7l2 2h9v11H3V6Z"/></symbol>
  <symbol id="settings" viewBox="0 0 24 24"><circle cx="12" cy="12" r="3"/><path d="M19 12a7 7 0 0 0-.1-1l2-1.5-2-3.4-2.4 1A8 8 0 0 0 15 6l-.3-2.6h-4L10.4 6A8 8 0 0 0 8.8 7l-2.4-1-2 3.4 2 1.5a7 7 0 0 0 0 2L4.4 14.5l2 3.4 2.4-1A8 8 0 0 0 10.4 18l.3 2.6h4L15 18a8 8 0 0 0 1.6-1l2.4 1 2-3.4-2-1.5a7 7 0 0 0 .1-1Z"/></symbol>
</svg>
